<?xml version="1.0" encoding="UTF-8"?>
<svg xmlns="http://www.w3.org/2000/svg" width="512" height="612" viewBox="-4.40625 -6 512 612">
	<use href="#sun" stroke="#fff" stroke-width="2" stroke-miterlimit="10" />
	<path id="sun" d="M 251.625,0
	L 233.9375,171.375
	L 233.1875,178.5625
	L 230.5,204.875
	C 237.45592,203.8542 244.57754,203.3125 251.8125,203.3125
	C 258.89968,203.31248 265.87356,203.83192 272.6875,204.8125
	L 270,178.5625
	L 269.25,171.5625 Z
	M 213.5625,82.375
	L 175.5625,107.6875
	L 213.5625,164.6875 Z
	M 289.625,82.375
	L 289.625,164.6875
	L 327.625,107.6875 Z
	M 147.25,96.625
	L 169.875,198.3750
	C 160.7709,203.34642 152.13294,209.0815 144.125,215.5625
	L 81.375,178.1875
	L 119,240.75
	C 112.44128,248.8038 106.39798,257.51692 101.375,266.6875
	L 0,244.0625
	L 87.5,299.9375
	C 84.56842,309.84948 82.46404,320.24072 81.375,330.8125
	L 10.875,348.4375
	L 81.375,366.0625
	C 82.45722,376.57122 84.59656,386.83012 87.5,396.6875
	L 0,452.5625
	L 101.375,430.1875
	C 106.41558,439.4109 112.40726,448.02946 119,456.125
	L 81.375,518.4375
	L 143.9375,481.0625
	C 152.00442,487.61254 160.69196,493.4225 169.875,498.4375
	L 147.25,600
	L 203.125,512.3125
	C 213.11136,515.27194 223.34746,517.34308 234,518.4375
	L 251.625,589.125
	L 269.1875,518.4375
	C 279.84146,517.35518 290.14031,515.26118 300.125,512.3125
	L 355.9375,600
	L 333.375,498.6875
	C 342.5557,493.68726 351.24747,487.78668 359.3125,481.25
	L 421.8125,518.4375
	L 384.4375,456.125
	C 391.01342,448.03376 396.8479,439.40522 401.875,430.1875
	L 503.1875,452.5625
	L 415.6875,396.6875
	C 418.5843,386.83012 420.73298,376.57124 421.8125,366.0625
	L 492.3125,348.4375
	L 421.8125,330.8125
	C 420.72622,320.2407 418.6123,309.84948 415.6875,299.9375
	L 503.1875,244.0625
	L 401.875,266.6875
	C 396.8198,257.4391 390.86492,248.6117 384.25,240.5
	L 421.8125,178.1875
	L 359.3125,215.5625
	C 351.27206,209.04578 342.52456,203.36492 333.375,198.375
	L 355.9375,96.625
	L 300,184.3125
	L 300,211.5625
	C 356.44512,231.42956 396.875,285.1663 396.875,348.4375
	C 396.875,428.61508 331.99014,493.6875 251.8125,493.6875
	S 106.3125,428.61514 106.3125,348.4375
	C 106.3125,285.29698 146.81448,231.70724 203.1875,211.75
	L 203.1875,184.3125 Z
	M 251.625,272.375
	A 76.03125,76.03125 0 0 0 251.625,424.4375
	A 76.03125,76.03125 0 0 0 251.625,272.375 Z" />
</svg>