<?xml version="1.0" encoding="UTF-8" standalone="no"?>
<!-- Generator: Adobe Illustrator 16.0.0, SVG Export Plug-In . SVG Version: 6.00 Build 0)  -->

<svg
   version="1.1"
   id="Layer_3"
   x="0px"
   y="0px"
   width="700px"
   height="700px"
   viewBox="0 0 700 700"
   enable-background="new 0 0 700 700"
   xml:space="preserve"
   sodipodi:docname="hutt_Desilijic_clan_vector.svg"
   inkscape:version="1.4 (e7c3feb1, 2024-10-09)"
   xmlns:inkscape="http://www.inkscape.org/namespaces/inkscape"
   xmlns:sodipodi="http://sodipodi.sourceforge.net/DTD/sodipodi-0.dtd"
   xmlns="http://www.w3.org/2000/svg"
   xmlns:svg="http://www.w3.org/2000/svg"><defs
   id="defs2" /><sodipodi:namedview
   id="namedview2"
   pagecolor="#ffffff"
   bordercolor="#000000"
   borderopacity="0.25"
   inkscape:showpageshadow="2"
   inkscape:pageopacity="0.0"
   inkscape:pagecheckerboard="0"
   inkscape:deskcolor="#d1d1d1"
   inkscape:zoom="0.037142857"
   inkscape:cx="350"
   inkscape:cy="336.53846"
   inkscape:window-width="1120"
   inkscape:window-height="250"
   inkscape:window-x="0"
   inkscape:window-y="39"
   inkscape:window-maximized="0"
   inkscape:current-layer="Layer_3" />
<path
   fill="#BC2729"
   d="M678.79,562.33c-8.33-20-11.5-28.5-11-59.33s2.33-44.5-3.83-51.83c-6.17-7.34-15.5-3.5-21-0.5  s-18.5,9.16-33.5-3.5c-13.06-11.03-38.229-34.68-50.7-58.1c0-0.011-0.01-0.011-0.01-0.021c-1.76-3.49-5.58-10.3,0.92-28.93  c6.5-18.62,14.5-44.5,29.74-44.24c15.26,0.24,39.88,6.45,40.05-7.21c0.16-13.67-5.67-32-14-50.84c-8.34-18.83-27-58.33-33-59.16  c-6-0.84-10.84-0.17-21.34,7c-10.5,7.16-12,10.66-33.33,22.33s-32,21.17-40.83,29.83c-8.84,8.67-14.34,17.84-0.17,20  c14.17,2.17,31.83,6,31.83,20c0,13.87-14.021,51.95-24.32,51.28c-0.1-0.01-0.189-0.02-0.29-0.03c-0.17-0.02-0.33-0.04-0.479-0.06  c-45.931-5.44-81.761-21.72-103.511-33.33c-0.069-0.04-0.159-0.09-0.25-0.14c-4.789-2.6-14.439-15.17,12.69-36.05  c16.08-12.38,16.33-17,16.33-23s-2.25-11.88-9-19.67c-8.76-10.11-21.25-22.58-24.25-43.08s-3.5-48.75,1-69.25  s23.75-42.83,44.92-41.83c21.16,1,27.66,11.16,38.16,12.5c10.5,1.33,18.18,2.5,19.34-3c1.17-5.5-5.01-9.83-11.34-19  S466.79,47.33,444.96,36c-21.84-11.33-45.17-8.33-60.17-4.33s-21.64,11-28.14,11c-2.851,0-4.65-0.03-6.65-0.07  c-1.51,0.04-3.65,0.07-6.5,0.07c-6.5,0-13-7-28-11s-38.33-7-60.17,4.33C233.5,47.33,229,64,222.67,73.17s-12.51,13.5-11.34,19  c1.16,5.5,8.84,4.33,19.34,3c10.5-1.34,17-11.5,38.16-12.5c21.17-1,40.42,21.33,44.92,41.83s4,48.75,1,69.25  s-15.49,32.97-24.25,43.08c-6.75,7.79-9,13.67-9,19.67s0.25,10.62,16.33,23c27.13,20.88,17.48,33.45,12.69,36.05  c-0.09,0.05-0.18,0.1-0.25,0.14c-21.75,11.61-57.58,27.89-103.51,33.33c-0.15,0.02-0.31,0.04-0.48,0.06  c-0.1,0.01-0.19,0.02-0.29,0.03c-10.3,0.67-24.32-37.41-24.32-51.28c0-14,17.66-17.83,31.83-20c14.17-2.16,8.67-11.33-0.17-20  c-8.83-8.66-19.5-18.16-40.83-29.83s-22.83-15.17-33.33-22.33c-10.5-7.17-15.34-7.84-21.34-7c-6,0.83-24.66,40.33-33,59.16  c-8.33,18.84-14.16,37.17-14,50.84c0.17,13.66,24.79,7.45,40.05,7.21c15.24-0.26,23.24,25.62,29.74,44.24  c6.5,18.63,2.68,25.439,0.92,28.93c0,0.01-0.01,0.01-0.01,0.021c-12.47,23.42-37.64,47.069-50.7,58.1c-15,12.66-28,6.5-33.5,3.5  s-14.83-6.84-21,0.5c-6.16,7.33-4.33,21-3.83,51.83s-2.67,39.33-11,59.33s-4.17,24.5-4.17,24.5s7.17,6.79,42.67-14.16  c45.96-27.14,83-28.17,90.67-28.17c7.66,0,14.71,1.27,16.5-3.33c4.33-11.17-15-17.34-29-27.84s-8.17-22.5,1.33-35  c8.82-11.61,23.04-23.5,37.24-35.55c13.74,14.26,34.97,28.17,58.76,42.72c25.75,15.75,36.17,23.33,52.83,33.5  c16.67,10.17,20,15.33,20.09,27.33c0.08,12-6.59,21.34-17.42,31.17s-18.33,13.83-27,22.5c5.83,4.5,17.67,8.67,37.33,24.17  c19.67,15.5,29.34,37.33,36.67,50c4.54,7.84,9.15,9.8,12,10.17c3-0.37,7.61-2.33,12.15-10.17c7.33-12.67,17.069-34.5,36.739-50  c19.66-15.5,31.53-19.67,37.36-24.17c-8.67-8.67-16.15-12.67-26.98-22.5c-10.829-9.83-17.489-19.17-17.409-31.17  c0.09-12,3.43-17.16,20.1-27.33c16.66-10.17,27.08-17.75,52.83-33.5c23.79-14.55,45.02-28.46,58.76-42.72  c14.2,12.05,28.42,23.939,37.24,35.55c9.5,12.5,15.33,24.5,1.33,35s-33.33,16.67-29,27.84c1.79,4.6,8.84,3.33,16.5,3.33  c7.67,0,44.71,1.03,90.67,28.17c35.5,20.95,42.67,14.16,42.67,14.16S687.12,582.33,678.79,562.33z M389.04,338.25  c8.87,2.25,30.75,17.08,97.92,28.75c0,0-0.42,5.38-6.29,14.12c-5.88,8.76-7.76,15-17.88,10s-26.88-10.24-59.75-13.74  C393.91,360.75,380.17,336,389.04,338.25z M456.07,405.96c0,0-6.53,14.79-18.45,8.87c-8.66-4.3-15.22-8.86-20.9-17.19  C433.02,397.7,447.34,402.33,456.07,405.96z M311.25,338.25c8.87-2.25-4.87,22.5-14,39.13c-32.87,3.5-49.63,8.74-59.75,13.74  s-12-1.24-17.88-10c-5.87-8.74-6.29-14.12-6.29-14.12C280.5,355.33,302.38,340.5,311.25,338.25z M283.57,397.64  c-5.68,8.33-12.24,12.891-20.9,17.19c-11.92,5.92-18.45-8.87-18.45-8.87C252.95,402.33,267.27,397.7,283.57,397.64z M158.88,435.38  c-4.38,3.12-25.88,22.79-37.05,37.45c-11.16,14.67-14,31.5-5.33,40.67s21,15.5,8.5,16.5s-20.62,3-43.25,11.62  c-22.28,8.5-36.55,14.8-36.99,14.99c0.17-0.511,5.91-16.91,5.91-35.94c0-19.34-2.34-51.67,2-52.67c4.33-1,6.83-0.67,16.16,2.33  c9.34,3,15.17,3.84,26.34-4.66c11.16-8.5,22.33-12.42,57.45-60.05c0,0,8.63,14.26,10.26,18.26  C164.5,427.88,163.25,432.25,158.88,435.38z M473.54,459c-30.5,21.25-78.08,49.33-85.75,55.5s-17,15.67-17,28.67  c0,19.5,21.33,45.83,27.83,52.66c6.5,6.84,0.84,8.5-6.83,13.84c-7.67,5.33-27.26,24.58-33.021,35.45c-2.77,5.24-5.77,7.26-8.77,7.95  c-2.61-0.69-5.85-2.71-8.62-7.95c-5.76-10.87-25.21-30.12-32.88-35.45c-7.67-5.34-13.33-7-6.83-13.84  c6.5-6.83,27.83-33.16,27.83-52.66c0-13-9.33-22.5-17-28.67s-55.25-34.25-85.75-55.5s-41.25-27.75-50.25-46.25S164,379.5,155,352  s-16.25-41-25.5-47.75s-18.5-8.92-26.33-8.58c-7.84,0.33-14.67,2-8-11.67c6.66-13.67,17.83-37.83,24.16-48.17  c6.34-10.33,12-13.33,17-8.66c5,4.66,15.5,13,28.5,21s27.67,19.5,22,20.25c-5.66,0.75-25,11.58-24.66,25.75  c0.33,14.16,9,36.5,15.33,49.66c6.33,13.17,27,50.67,39.25,62.42s35.25,35,48.25,29.25s30.25-17,49.5-51.25s39.5-80.08,7.5-107.5  c-28.54-24.46-14.33-27.42-3.25-42.25c8.72-11.67,19-25.5,19-75s-16.75-79-37.5-90.75s-42.5-6.75-55.25,0  c5.25-7.75,26.25-21.5,43-20.5S326.25,60.5,339.25,61c2.14,0.08,5.92,0.12,10.75,0.14c5-0.02,8.75-0.06,10.9-0.14  c13-0.5,34.569-11.75,51.319-12.75S450,61,455.25,68.75c-12.75-6.75-34.48-11.75-55.23,0S362.53,110,362.53,159.5  s10.29,63.33,19.01,75c11.08,14.83,25.29,17.79-3.25,42.25c-32,27.42-11.75,73.25,7.5,107.5s36.5,45.5,49.5,51.25  s36-17.5,48.25-29.25s32.92-49.25,39.25-62.42c6.33-13.16,15-35.5,15.33-49.66c0.34-14.17-19-25-24.66-25.75  c-5.67-0.75,9-12.25,22-20.25s23.5-16.34,28.5-21c5-4.67,10.66-1.67,17,8.66c6.33,10.34,17.5,34.5,24.16,48.17  c6.67,13.67-0.16,12-8,11.67c-7.83-0.34-17.08,1.83-26.33,8.58s-16.5,20.25-25.5,47.75s-12.5,42.25-21.5,60.75  S504.04,437.75,473.54,459z M618.54,541.62C595.91,533,587.79,531,575.29,530s-0.17-7.33,8.5-16.5s5.83-26-5.33-40.67  c-11.17-14.66-32.67-34.33-37.05-37.45c-4.37-3.13-5.62-7.5-4-11.5c1.63-4,10.26-18.26,10.26-18.26  c35.12,47.63,46.29,51.55,57.45,60.05c11.17,8.5,17,7.66,26.34,4.66c9.33-3,11.83-3.33,16.16-2.33c4.34,1,2,33.33,2,52.67  c0,19.03,5.74,35.43,5.91,35.94C655.09,556.42,640.82,550.12,618.54,541.62z"
   id="path1"
   style="fill:#000000" />
<path
   fill="#BC2729"
   d="M350,416.88c-29.3,0.07-55.75,15.4-52,44.37c3.32,25.69,22.58,46.04,52,46.13c30-0.09,48.68-20.439,52-46.13  C405.75,432.28,380,416.95,350,416.88z M350.48,487h-0.67c-15.08,0-27.31-7.85-27.31-24.16c0-16.93,12.23-25.84,27.31-25.84h0.67  c15.08,0,27.31,8.91,27.31,25.84C377.79,479.15,365.56,487,350.48,487z"
   id="path2"
   style="fill:#000000" />
</svg>
