<?xml version="1.0" encoding="UTF-8" standalone="no"?>
<!-- Generator: Adobe Illustrator 24.0.1, SVG Export Plug-In . SVG Version: 6.00 Build 0)  -->

<svg
   version="1.1"
   id="svg8378"
   x="0px"
   y="0px"
   viewBox="0 0 600 600"
   style="enable-background:new 0 0 600 600;"
   xml:space="preserve"
   sodipodi:docname="new-republic.svg"
   inkscape:version="1.4 (e7c3feb1, 2024-10-09)"
   xmlns:inkscape="http://www.inkscape.org/namespaces/inkscape"
   xmlns:sodipodi="http://sodipodi.sourceforge.net/DTD/sodipodi-0.dtd"
   xmlns="http://www.w3.org/2000/svg"
   xmlns:svg="http://www.w3.org/2000/svg"><defs
   id="defs1" /><sodipodi:namedview
   id="namedview1"
   pagecolor="#ffffff"
   bordercolor="#000000"
   borderopacity="0.25"
   inkscape:showpageshadow="2"
   inkscape:pageopacity="0.0"
   inkscape:pagecheckerboard="0"
   inkscape:deskcolor="#d1d1d1"
   inkscape:zoom="0.35810763"
   inkscape:cx="404.9062"
   inkscape:cy="427.24586"
   inkscape:window-width="1560"
   inkscape:window-height="843"
   inkscape:window-x="0"
   inkscape:window-y="39"
   inkscape:window-maximized="0"
   inkscape:current-layer="svg8378" />
<style
   type="text/css"
   id="style1">
	.st0{fill:#FED700;}
</style>
<path
   id="layer4"
   transform="translate(-1491.7195,-1150.9468)"
   class="st0"
   d="M1791.7,1151.9c-165.1,0-299,134-299,299  s133.9,299,299,299s299-133.9,299-299S1956.7,1151.9,1791.7,1151.9z M1791.7,1738.9c-158.9,0-287.8-129-287.8-287.9  s128.9-287.9,287.8-287.9s288,129,288,287.9S1950.6,1738.9,1791.7,1738.9z M1743.7,1182.2l-3.5,17.5l-7.6-6l2,9.6l-17.3-4.6  l13.5,11.7l-9.1,3.7l9.3,3l-12.6,12.7l16.9-5.8l-1.4,9.7l7.3-6.5l4.7,17.3l3.5-17.5l7.6,6l-1.9-9.5l17.3,4.5l-13.5-11.7l9.1-3.7  l-9.3-3.1l12.6-12.7l-16.9,5.8l1.3-9.7l-7.3,6.6L1743.7,1182.2z M1842.5,1182.9l-4.2,17.3l-7.4-6.3l1.5,9.6l-17.1-5.3l12.9,12.3  l-9.2,3.3l9.2,3.5l-13.1,12.2l17.1-5.1l-1.7,9.5l7.5-6.2l4,17.5l4.2-17.4l7.4,6.3l-1.5-9.7l17,5.3l-13-12.3l9.2-3.2l-9.2-3.4  l13.1-12.2l-17.1,5l1.8-9.5l-7.5,6.2L1842.5,1182.9z M1652.6,1221l-3.7,17.5l-7.6-6.1l1.8,9.7l-17.1-4.8l13.3,11.9l-9.2,3.5l9.3,3.2  l-12.8,12.6l16.9-5.6l-1.5,9.7l7.4-6.4l4.5,17.3l3.7-17.5l7.6,6.1l-1.9-9.7l17.2,4.8l-13.3-11.9l9.1-3.5l-9.2-3.2l12.8-12.5  l-16.9,5.5l1.4-9.6l-7.4,6.4L1652.6,1221z M1932.8,1222.8l-4.1,17.4l-7.5-6.3l1.7,9.7l-17.2-5.2l13,12.2l-9.2,3.4l9.2,3.4  l-13.1,12.2l17.1-5.2l-1.7,9.6l7.5-6.3l4.1,17.4l4.1-17.4l7.5,6.3l-1.7-9.7l17.1,5.2l-13-12.2l9.2-3.4l-9.2-3.4l13.1-12.2l-17.1,5.1  l1.7-9.6l-7.6,6.3L1932.8,1222.8z M1583.4,1294.9l-3.7,17.4l-7.6-6.1l1.9,9.6l-17.1-4.8l13.2,11.9l-9.1,3.5l9.3,3.2l-12.8,12.5  l16.9-5.5l-1.4,9.7l7.4-6.4l4.5,17.3l3.6-17.4l7.6,6l-1.9-9.6l17.2,4.8l-13.3-12l9.1-3.5l-9.2-3.2l12.7-12.5l-16.9,5.5l1.5-9.6  l-7.4,6.4L1583.4,1294.9z M2000.6,1297.5l-3.9,17.4l-7.5-6.3l1.7,9.7l-17.1-5.1l13.1,12.1l-9.2,3.4l9.2,3.4l-13,12.3l17.1-5.3  l-1.6,9.6l7.5-6.3l4.3,17.4l3.9-17.4l7.5,6.2l-1.7-9.7l17.1,5l-13.1-12l9.2-3.4l-9.3-3.4l13-12.3l-17,5.3l1.6-9.7l-7.5,6.4  L2000.6,1297.5z M1550.6,1392.4l-3.8,17.5l-7.6-6.2l1.8,9.7l-17.2-4.9l13.2,11.9l-9.1,3.5l9.2,3.3l-12.9,12.4l17-5.4l-1.5,9.7  l7.5-6.4l4.3,17.5l3.8-17.5l7.5,6.1l-1.8-9.6l17.3,5l-13.2-12.1l9.1-3.4l-9.2-3.2l12.8-12.5l-17,5.4l1.6-9.6l-7.4,6.4L1550.6,1392.4  z M2032.6,1395.8l-3.9,17.3l-7.5-6.2l1.7,9.6l-17.2-5l13.1,12.2l-9.1,3.4l9.2,3.4l-13,12.3l17.1-5.3l-1.6,9.6l7.5-6.3l4.3,17.3  l3.9-17.3l7.5,6.2l-1.7-9.7l17.1,5.1l-13.1-12.1l9.2-3.4l-9.2-3.4l13-12.4l-16.9,5.3l1.6-9.6l-7.5,6.3L2032.6,1395.8z   M1561.5,1496.1l-3.9,17.5l-7.5-6.2l1.7,9.6l-17.2-5l13.1,12.1l-9.2,3.4l9.3,3.3l-13,12.4l17-5.3l-1.5,9.5l7.5-6.3l4.3,17.4  l3.9-17.5l7.5,6.2l-1.8-9.7l17.2,5l-13.1-12.1l9.2-3.4l-9.3-3.3l13-12.4l-17.1,5.3l1.6-9.6l-7.5,6.3L1561.5,1496.1z M2020.1,1499.4  l-3.9,17.5l-7.5-6.1l1.8,9.6l-17.2-4.9l13.2,12l-9.1,3.5l9.2,3.3l-12.9,12.4l17-5.4l-1.5,9.6l7.5-6.4l4.3,17.4l3.8-17.5l7.5,6.2  l-1.8-9.7l17.2,4.9l-13.1-12l9.1-3.5l-9.3-3.3l12.9-12.4l-17,5.4l1.5-9.6l-7.5,6.4L2020.1,1499.4z M1612.5,1583.9l-3.5,17.5l-7.7-6  l2,9.6l-17.3-4.6l13.3,11.8l-9,3.6l9.3,3.1l-12.8,12.6l16.9-5.6l-1.4,9.5l7.3-6.4l4.6,17.3l3.5-17.5l7.7,6.1l-1.9-9.7l17.3,4.6  l-13.4-11.8l9-3.6l-9.3-3.1l12.6-12.7l-16.9,5.7l1.4-9.7l-7.3,6.5L1612.5,1583.9z M1967.8,1586.5l-4.2,17.3l-7.5-6.3l1.6,9.6  l-17.1-5.3l13,12.4l-9.2,3.2l9.2,3.5l-13.1,12.2l17.1-5.1l-1.8,9.6l7.6-6.2l3.9,17.4l4.3-17.3l7.4,6.3l-1.5-9.7l17,5.3l-12.9-12.2  l9.2-3.3l-9.2-3.5l13.1-12.2l-17.1,5l1.8-9.5l-7.6,6.2L1967.8,1586.5z M1694.5,1641.7l-4,17.4l-7.5-6.3l1.7,9.7l-17.1-5.1l13,12.1  l-9.1,3.4l9.2,3.4l-13,12.3l17.1-5.2l-1.7,9.6l7.5-6.3l4.2,17.4l4-17.4l7.5,6.3l-1.7-9.7l17.1,5.1l-13.1-12.1l9.2-3.4l-9.2-3.4  l13-12.3l-17,5.2l1.6-9.6l-7.5,6.3L1694.5,1641.7z M1885.8,1643l-4.2,17.4l-7.4-6.3l1.6,9.7l-17.1-5.2l13,12.2l-9.2,3.4l9.2,3.4  l-13.1,12.2l17.1-5.1l-1.7,9.6l7.5-6.3l4.1,17.5l4.1-17.4l7.4,6.3l-1.6-9.7l17.1,5.3l-13-12.2l9.2-3.3l-9.2-3.5l13.1-12.2l-17.1,5.1  l1.7-9.6l-7.6,6.3L1885.8,1643z M1789.9,1662l-4.1,17.5l-7.5-6.3l1.7,9.7l-17.2-5.1l13.1,12.1l-9.1,3.4l9.2,3.4l-13,12.3l17.1-5.2  l-1.6,9.6l7.5-6.4l4.2,17.5l4-17.4l7.5,6.2l-1.7-9.7l17.1,5.1l-13.1-12.1l9.2-3.4l-9.2-3.4l13-12.3l-17.1,5.3l1.7-9.6l-7.5,6.3  L1789.9,1662z M1791.7,1244.5l-37.6,45.1c13,18.3,18.4,37,18.4,48.1c-13.8-16.6-22-22.8-32.3-33.1l-26.6,27.6  c37,17.7,55.5,53,55.5,89.9c0,21-8.4,67.3-54.1,65.3c-33.7-3.9-66.7-49.5-69.5-91.4c-2.8-41.8,19-78.6,48.8-112.3  c-61.2,35.3-100.4,99.2-100.4,159c0,122.6,87.9,204.1,198,204.1c110,0,198-81.6,198-204.1c0-59.8-39.2-123.6-100.4-159  c29.8,33.8,51.6,70.5,48.8,112.3c-2.9,41.9-35.8,87.5-69.5,91.4c-45.7,1.9-54.1-44.4-54.1-65.3c0-36.9,18.5-72.2,55.5-89.9  l-26.6-27.6c-10.3,10.3-18.6,16.5-32.3,33.1c0-11,5.4-29.8,18.4-48.1L1791.7,1244.5z"
   style="fill:#000000" />
</svg>
