<?xml version="1.0" encoding="UTF-8"?>
<!DOCTYPE svg PUBLIC "-//W3C//DTD SVG 1.0//EN"
	"http://www.w3.org/TR/2001/REC-SVG-20010904/DTD/svg10.dtd">
<svg xmlns="http://www.w3.org/2000/svg" version="1.0" width="600" height="600" id="s1" xml:space="preserve">
<g transform="matrix(1.25,0,0,-1.25,-95.174805,391.32358)" id="g1">
<g transform="matrix(1.6,0,0,-1.6,550.42554,-208.87592)" id="g2">
<path d="M-146.42855,-268.17836L-163.90296,-248.78079C-157.77711,-239.9981-155.48791,-229.436-155.48791,-224.13116C-160.6911,-233.30673-166.40691,-235.95615-172.03491,-239.75074L-183.29076,-227.2551C-167.98356,-221.9444-158.61184,-203.82571-158.61184,-185.08223C-158.61184,-176.02285-161.73575,-154.46783-183.29076,-155.40502L-183.29076,-155.49289C-199.18986,-157.37447-214.12218,-175.84962-215.4671,-196.01593C-216.808,-216.12216-208.28206,-235.68965-194.22446,-251.934L-194.27328,-251.934C-219.97913,-236.64081-237.81705,-209.37395-240.18507,-177.63361C-240.24309,-176.85578-240.29215,-176.07365-240.3315,-175.29071C-240.33233,-175.2744-240.33069,-175.25816-240.3315,-175.24187C-240.37095,-174.44899-240.40908,-173.64802-240.42912,-172.85013C-240.44991,-172.03755-240.45841,-171.21737-240.45841,-170.39982C-240.45841,-118.49533-198.33303,-76.369971-146.42855,-76.369971C-94.524084,-76.369971-52.39871,-118.49533-52.39871,-170.39982C-52.39871,-172.83282-52.490259,-175.24691-52.672041,-177.63361C-55.040062,-209.37395-72.877982,-236.64081-98.583863,-251.934L-98.63266,-251.934C-84.575054,-235.68965-76.049116,-216.12216-77.390036,-196.01593C-78.73494,-175.84962-93.667275,-157.37447-109.56637,-155.49289L-109.56637,-155.40502C-131.12136,-154.46783-134.24529,-176.02285-134.24527,-185.08223C-134.24527,-203.82571-124.87354,-221.9444-109.56637,-227.2551L-120.82222,-239.75074C-126.4502,-235.95615-132.16603,-233.30673-137.3692,-224.13116C-137.3692,-229.436-135.08,-239.9981-128.95414,-248.78079L-146.42855,-268.17836z" style="opacity:1;fill:#000;fill-opacity:1;stroke:none;stroke-width:8;stroke-miterlimit:4;stroke-dasharray:none;stroke-dashoffset:1.8;stroke-opacity:1" id="p1"/>
<path d="M-201.03125,-352.96875L-198.34375,-308.875L-193.59375,-314.125L-201.03125,-352.96875zM-168.8125,-352.96875L-176.3125,-314.03125L-171.5625,-308.75L-168.8125,-352.96875zM-232.25,-344.96875L-214.6875,-290.6875L-213.9375,-291.53125L-211.3125,-294.4375L-208.09375,-292.25C-207.76567,-292.0288-207.40437,-291.79025-207.0625,-291.5625L-232.25,-344.96875zM-137.625,-344.9375L-162.8125,-291.65625C-162.51504,-291.85418-162.19316,-292.05655-161.90625,-292.25L-158.65625,-294.4375L-156.03125,-291.53125L-155.21875,-290.625L-137.625,-344.9375zM-260.46875,-329.46875L-241.9375,-300.15625C-240.73125,-301.01597-239.49548,-301.85073-238.25,-302.65625L-260.46875,-329.46875zM-109.40625,-329.40625L-131.65625,-302.59375C-130.40615,-301.78349-129.17911,-300.95866-127.96875,-300.09375L-109.40625,-329.40625zM-283.96875,-307.4375L-259.375,-284.28125C-258.43337,-285.36977-257.45603,-286.45417-256.46875,-287.5L-283.96875,-307.4375zM-85.9375,-307.34375L-113.4375,-287.40625C-112.45782,-286.36552-111.49699,-285.30163-110.5625,-284.21875L-85.9375,-307.34375zM-231.8125,-294.875C-233.10041,-293.27023-234.30194,-291.62612-235.46875,-289.96875L-227.1875,-276.84375L-225.1875,-279.0625L-221.8125,-282.8125L-231.8125,-294.875zM-138.125,-294.8125L-148.125,-282.75L-144.78125,-279.0625L-142.71875,-276.78125L-134.4375,-289.875C-135.60706,-291.5405-136.83317,-293.19997-138.125,-294.8125zM-301.21875,-280.25L-272.71875,-264.5C-272.07928,-265.7528-271.37769,-266.96655-270.6875,-268.1875L-301.21875,-280.25zM-68.6875,-280.15625L-99.25,-268.125C-98.559371,-266.89962-97.920827,-265.66365-97.28125,-264.40625L-68.6875,-280.15625zM-242.78125,-277.5625C-243.78961,-275.45807-244.70157,-273.3392-245.5,-271.1875L-221.78125,-248.875L-248.71875,-259.5C-249.1763,-256.92424-249.46973,-254.35311-249.59375,-251.75L-226.4375,-238.96875L-249.15625,-241.8125C-248.69229,-238.77457-247.9031,-235.80811-246.8125,-232.96875L-228.5,-228.25L-243.625,-226.3125C-241.67387,-222.95591-239.32704,-219.91738-236.78125,-217.34375L-227.8125,-217.3125L-234.0625,-214.84375C-230.01638,-211.47524-225.58302,-209.2554-221.3125,-208.75L-221.125,-208.71875C-212.27708,-208.50458-208.20458,-212.22342-205.375,-217.4375C-202.48176,-222.76886-201.68749,-229.86255-201.6875,-233.875C-201.6875,-251.11848-210.4936,-267.323-223.34375,-271.78125L-224.15625,-272.0625L-214.8125,-257.28125L-242.78125,-277.5625zM-127.15625,-277.5L-155.09375,-257.25L-145.6875,-272.125L-146.65625,-271.78125C-159.50636,-267.32301-168.31249,-251.11848-168.3125,-233.875C-168.31251,-229.86256-167.48698,-222.76886-164.59375,-217.4375C-161.76383,-212.22282-157.69379,-208.50364-148.84375,-208.71875L-148.65625,-208.75C-144.39538,-209.25426-139.97619,-211.45691-135.9375,-214.8125L-142.125,-217.28125L-133.25,-217.28125C-130.69475,-219.85578-128.36525,-222.91815-126.40625,-226.28125L-141.4375,-228.1875L-123.21875,-232.875C-122.11783,-235.72282-121.283,-238.70084-120.8125,-241.75L-143.5,-238.9375L-120.40625,-251.65625C-120.52667,-254.27058-120.82428,-256.8506-121.28125,-259.4375L-148.15625,-248.84375L-124.46875,-271.125C-125.26381,-273.27339-126.15185,-275.39862-127.15625,-277.5zM-311.1875,-249.59375L-280.96875,-241.78125C-280.66539,-243.09533-280.35463,-244.39423-280,-245.6875L-311.1875,-249.59375zM-58.71875,-249.5L-90,-245.59375C-89.646834,-244.29939-89.301893,-243.00266-89,-241.6875L-58.71875,-249.5zM-283.5,-221.25L-313.21875,-217.46875L-283.5,-217.40625C-283.51064,-218.00127-283.53125,-218.58998-283.53125,-219.1875C-283.53125,-219.87066-283.5138,-220.56008-283.5,-221.25zM-86.5,-221.1875C-86.487354,-220.52368-86.468751,-219.85526-86.46875,-219.1875C-86.46875,-218.56902-86.4886,-217.95955-86.5,-217.34375L-56.71875,-217.375L-86.5,-221.1875zM-280.84375,-196.28125L-307.21875,-185.8125L-279.9375,-192.78125C-280.26001,-193.93939-280.563,-195.10646-280.84375,-196.28125zM-89.1875,-196.21875C-89.469124,-195.04381-89.770347,-193.87702-90.09375,-192.71875L-62.78125,-185.71875L-89.1875,-196.21875zM-271.75,-172.5L-293.5,-156.65625L-270.0625,-169.5C-270.63999,-170.48483-271.20612,-171.49381-271.75,-172.5zM-98.28125,-172.46875C-98.824146,-171.46538-99.392425,-170.45087-99.96875,-169.46875L-76.5,-156.59375L-98.28125,-172.46875zM-256.65625,-151.625L-272.96875,-131.84375L-254.34375,-149.28125C-255.12458,-150.0555-255.90149,-150.8252-256.65625,-151.625zM-113.375,-151.59375C-114.12872,-150.7955-114.9078,-150.02279-115.6875,-149.25L-97.03125,-131.78125L-113.375,-151.59375zM-236.46875,-135.1875L-246.9375,-112.875L-233.75,-133.59375C-234.66809,-134.11828-235.56938,-134.6346-236.46875,-135.1875zM-133.5625,-135.1875C-134.45701,-134.63785-135.36822,-134.11534-136.28125,-133.59375L-123.09375,-112.84375L-133.5625,-135.1875zM-212.5,-124.5625L-216.96875,-101.03125L-209.5625,-123.78125C-210.53952,-124.03284-211.53488,-124.28188-212.5,-124.5625zM-157.53125,-124.5625C-158.50829,-124.27841-159.47952,-124.00433-160.46875,-123.75L-153.0625,-101L-157.53125,-124.5625zM-186.53125,-120.6875L-185.03125,-96.96875L-183.5,-120.6875C-184.00143,-120.67995-184.49681,-120.65625-185,-120.65625C-185.50741,-120.65625-186.02564,-120.67982-186.53125,-120.6875z" transform="translate(38.571435,48.79076)" style="opacity:1;fill:#000;fill-opacity:1;stroke:none;stroke-width:2;stroke-miterlimit:4;stroke-dasharray:none;stroke-dashoffset:1.8;stroke-opacity:1" id="p2"/>
<path d="M-146.42856,-326.20924C-229.22856,-326.20924-296.42856,-259.00921-296.42856,-176.20924C-296.42856,-93.409246-229.22856,-26.209245-146.42856,-26.209236C-63.628571,-26.209236 3.5714391,-93.409237 3.5714391,-176.20924C3.5714391,-259.00923-63.62858,-326.20923-146.42856,-326.20924zM-146.42856,-312.7764C-71.043514,-312.7764-9.8613969,-251.5943-9.8613969,-176.20924C-9.861379,-100.82417-71.043505,-39.642072-146.42856,-39.642072C-221.81363,-39.64209-282.99573,-100.82418-282.99573,-176.20924C-282.99574,-251.5943-221.81362,-312.7764-146.42856,-312.7764z" style="opacity:1;fill:#000;fill-opacity:1;stroke:none;stroke-width:2;stroke-miterlimit:4;stroke-dasharray:none;stroke-dashoffset:1.8;stroke-opacity:1" id="p3"/>
</g>
</g>
</svg>