<?xml version="1.0" encoding="UTF-8" ?>
<!DOCTYPE svg PUBLIC "-//W3C//DTD SVG 1.1//EN" "http://www.w3.org/Graphics/SVG/1.1/DTD/svg11.dtd">
<svg width="348pt" height="336pt" viewBox="0 0 348 336" version="1.1" xmlns="http://www.w3.org/2000/svg">
<g id="#ffffffff">
</g>
<g id="#ff9f36ff">
<path fill="#ff9f36" opacity="1.00" d=" M 65.17 37.19 C 96.77 12.65 136.89 -0.89 176.93 0.13 C 197.02 -0.13 217.08 3.77 235.96 10.54 C 219.57 7.40 202.66 6.24 186.12 8.88 C 157.00 12.50 129.74 27.32 110.17 49.07 C 114.02 48.40 117.49 46.58 121.05 45.09 C 133.37 39.75 146.51 36.09 159.92 35.02 C 173.33 33.57 186.84 34.73 200.18 36.33 C 190.39 38.22 180.41 39.43 170.99 42.84 C 147.61 50.36 126.66 65.36 112.38 85.38 C 103.01 98.77 96.33 114.49 95.63 130.97 C 95.39 142.17 99.17 154.61 109.10 160.88 C 116.64 165.39 125.93 167.24 134.58 165.46 C 145.07 163.79 155.00 159.59 164.19 154.37 C 172.01 149.74 179.58 144.49 185.89 137.90 C 188.46 135.71 187.61 132.16 187.67 129.21 C 186.23 128.98 184.69 128.46 183.39 129.41 C 175.64 133.66 167.48 137.16 159.06 139.85 C 145.47 144.04 130.43 145.59 116.89 140.38 C 125.58 141.55 134.59 140.59 142.52 136.68 C 156.26 130.08 167.52 119.57 179.49 110.35 C 198.34 95.93 218.52 83.19 239.87 72.79 C 257.33 64.66 275.82 57.32 295.27 56.40 C 284.65 65.72 273.43 74.41 263.50 84.51 C 253.65 94.02 244.85 104.54 236.26 115.19 C 233.87 118.31 230.18 119.90 227.04 122.09 C 211.98 132.27 199.55 146.44 191.80 162.91 C 185.46 176.28 181.95 191.33 183.80 206.14 C 185.12 215.44 189.72 224.88 197.99 229.85 C 206.75 235.26 217.72 235.33 227.52 233.31 C 249.80 228.25 269.24 213.69 282.56 195.39 C 296.44 176.70 303.29 153.15 302.37 129.95 C 302.02 124.86 301.30 119.79 301.24 114.68 C 306.67 127.91 311.31 141.65 312.55 155.99 C 313.91 165.69 313.06 175.52 311.45 185.12 C 310.15 192.58 307.60 199.73 306.16 207.15 C 319.95 191.76 329.30 172.45 332.88 152.09 C 336.75 128.14 333.27 103.09 323.23 81.02 C 337.34 102.77 345.19 128.28 347.48 154.02 C 347.82 162.67 347.82 171.34 347.48 179.98 C 345.51 203.18 338.70 225.99 327.33 246.34 C 309.59 278.49 281.15 304.50 247.74 319.69 C 194.57 344.30 129.10 340.96 79.32 309.72 C 53.02 293.62 31.20 270.23 17.24 242.71 C 7.26 223.15 1.38 201.53 0.00 179.61 L 0.00 158.33 C 2.67 110.95 27.76 66.02 65.17 37.19 M 215.94 91.75 C 219.67 91.21 223.27 90.01 226.79 88.70 C 230.17 87.50 233.07 84.67 233.80 81.08 C 227.76 84.47 221.64 87.82 215.94 91.75 Z" />
</g>
</svg>
