<?xml version="1.0" encoding="UTF-8" standalone="no"?>
<!-- Generator: Adobe Illustrator 16.0.0, SVG Export Plug-In . SVG Version: 6.00 Build 0)  -->

<svg
   version="1.1"
   id="Layer_3"
   x="0px"
   y="0px"
   width="872.956px"
   height="929.954px"
   viewBox="0 0 872.956 929.954"
   enable-background="new 0 0 872.956 929.954"
   xml:space="preserve"
   sodipodi:docname="Pyke_syndicate.svg"
   inkscape:version="1.4 (e7c3feb1, 2024-10-09)"
   xmlns:inkscape="http://www.inkscape.org/namespaces/inkscape"
   xmlns:sodipodi="http://sodipodi.sourceforge.net/DTD/sodipodi-0.dtd"
   xmlns="http://www.w3.org/2000/svg"
   xmlns:svg="http://www.w3.org/2000/svg"><defs
   id="defs6" /><sodipodi:namedview
   id="namedview6"
   pagecolor="#ffffff"
   bordercolor="#000000"
   borderopacity="0.25"
   inkscape:showpageshadow="2"
   inkscape:pageopacity="0.0"
   inkscape:pagecheckerboard="0"
   inkscape:deskcolor="#d1d1d1"
   inkscape:zoom="0.027958373"
   inkscape:cx="429.20953"
   inkscape:cy="447.09326"
   inkscape:window-width="1120"
   inkscape:window-height="250"
   inkscape:window-x="0"
   inkscape:window-y="39"
   inkscape:window-maximized="0"
   inkscape:current-layer="Layer_3" />
<g
   id="g6"
   style="fill:#000000">
	<path
   fill="#F7BB03"
   d="M339.022,471.247c0,46.748,32.881,85.771,76.768,95.254v47.9c-66.504-10.527-117.515-71.045-117.515-144.15   c0-57.5,31.567-107.227,77.407-130.938V14.977h40.107v361.021C371.903,385.475,339.022,424.508,339.022,471.247z"
   id="path1"
   style="fill:#000000" />
	<path
   fill="#F7BB03"
   d="M574.687,470.25c0,73.105-51.016,133.623-117.51,144.15v-47.9c43.877-9.492,76.748-48.535,76.748-95.254   s-32.871-85.752-76.748-95.249V14.977h40.098v324.336C543.114,363.024,574.687,412.75,574.687,470.25z"
   id="path2"
   style="fill:#000000" />
	<path
   fill="#F7BB03"
   d="M228.709,713.795c0,0-83.672-145.713-130.674-183.32c-14.102,72.383-42.305,144.775-84.609,183.32   C83.934,691.237,123.417,656.452,228.709,713.795z"
   id="path3"
   style="fill:#000000" />
	<path
   fill="#F7BB03"
   d="M644.247,713.795c0,0,83.672-145.713,130.674-183.32c14.102,72.383,42.305,144.775,84.609,183.32   C789.022,691.237,749.54,656.452,644.247,713.795z"
   id="path4"
   style="fill:#000000" />
	<path
   fill="#F7BB03"
   d="M421.429,914.977c0,0,6.895-88.994-75.835-218.105C262.865,567.77,109.945,349.66,109.945,349.66   s53.896-104.038,134.746-166.084s94.009-112.813,78.97-156.06c-28.203,13.164-92.134,39.487-171.099,116.572   c-78.97,77.09-114.697,137.256-125.977,189.902C96.156,424.245,295.458,676.188,421.429,914.977z"
   id="path5"
   style="fill:#000000" />
	<path
   fill="#F7BB03"
   d="M451.522,914.977c0,0-6.889-88.994,75.84-218.105C610.087,567.77,763.007,349.66,763.007,349.66   S709.12,245.622,628.271,183.576s-94.014-112.813-78.975-156.06c28.203,13.164,92.129,39.487,171.104,116.572   c78.965,77.09,114.688,137.256,125.967,189.902C776.806,424.245,577.499,676.188,451.522,914.977z"
   id="path6"
   style="fill:#000000" />
</g>
</svg>
